<svg width="64" height="64" viewBox="0 0 64 64" xmlns="http://www.w3.org/2000/svg">
  <defs>
    <linearGradient id="grad1" x1="0%" y1="0%" x2="100%" y2="100%">
      <stop offset="0%" style="stop-color:#667eea;stop-opacity:1" />
      <stop offset="100%" style="stop-color:#764ba2;stop-opacity:1" />
    </linearGradient>
    <linearGradient id="grad2" x1="0%" y1="0%" x2="100%" y2="100%">
      <stop offset="0%" style="stop-color:#f093fb;stop-opacity:1" />
      <stop offset="100%" style="stop-color:#f5576c;stop-opacity:1" />
    </linearGradient>
  </defs>

  <!-- 背景圆 -->
  <circle cx="32" cy="32" r="30" fill="url(#grad1)"/>

  <!-- 聊天气泡 -->
  <path d="M 16 20 Q 16 16 20 16 L 36 16 Q 40 16 40 20 L 40 28 Q 40 32 36 32 L 26 32 L 20 38 L 20 32 Q 16 32 16 28 Z"
        fill="white" opacity="0.9"/>

  <!-- AI 大脑简化图标 -->
  <g transform="translate(22, 22)">
    <circle cx="0" cy="0" r="1.5" fill="url(#grad2)"/>
    <circle cx="6" cy="0" r="1.5" fill="url(#grad2)"/>
    <circle cx="12" cy="0" r="1.5" fill="url(#grad2)"/>
    <line x1="0" y1="0" x2="6" y2="0" stroke="url(#grad2)" stroke-width="1"/>
    <line x1="6" y1="0" x2="12" y2="0" stroke="url(#grad2)" stroke-width="1"/>
  </g>

  <!-- 购物车小图标 -->
  <g transform="translate(38, 40)">
    <rect x="0" y="0" width="10" height="8" rx="1" fill="white" opacity="0.9"/>
    <circle cx="2" cy="10" r="1.5" fill="white" opacity="0.9"/>
    <circle cx="8" cy="10" r="1.5" fill="white" opacity="0.9"/>
  </g>

  <!-- 闪电 -->
  <path d="M 46 22 L 44 28 L 46 28 L 45 32 L 50 27 L 48 27 L 49 22 Z"
        fill="#fbbf24"/>
</svg>
